STARTFONT 2.1
FONT -MIT-31VG KST-Medium-R-Normal--31-11-200-200-P-16-ISO8859-1
SIZE 11 200 200
FONTBOUNDINGBOX 29 31 -4 -7
STARTPROPERTIES 17
ADD_STYLE_NAME ""
AVERAGE_WIDTH 16
CHARSET_ENCODING "1"
CHARSET_REGISTRY "ISO8859"
DEFAULT_CHAR 0
FAMILY "31VG KST"
FONT_ASCENT 24
FONT_DESCENT 7
FOUNDRY "MIT"
PIXEL_SIZE 31
POINT_SIZE 11
RESOLUTION_X 200
RESOLUTION_Y 200
SETWIDTH_NAME "Normal"
SLANT "R"
SPACING "P"
WEIGHT_NAME "Medium"
ENDPROPERTIES
CHARS 120
STARTCHAR char2
ENCODING 2
SWIDTH 360 0
DWIDTH 4 0
BBX 2 31 0 -7
BITMAP
00
00
00
00
00
00
00
00
00
00
00
00
00
00
00
00
C0
C0
00
00
C0
C0
C0
C0
C0
C0
C0
C0
C0
C0
00
ENDCHAR
STARTCHAR char3
ENCODING 3
SWIDTH 1080 0
DWIDTH 12 0
BBX 9 31 0 -7
BITMAP
0000
0000
0000
0000
0000
0000
0000
0000
0000
0000
0000
0000
0000
0000
0000
CE00
DF00
F380
E180
C180
C180
C180
E180
F380
DF00
CE00
C000
C000
C000
C000
0000
ENDCHAR
STARTCHAR char4
ENCODING 4
SWIDTH 1800 0
DWIDTH 20 0
BBX 18 31 0 -7
BITMAP
000000
000000
000000
000000
000000
000000
00C000
01E000
033000
033000
033000
061800
061800
0C0C00
0C0C00
0C0C00
380700
380700
700380
700380
C000C0
C000C0
C000C0
000000
000000
000000
000000
000000
000000
000000
000000
ENDCHAR
STARTCHAR char5
ENCODING 5
SWIDTH 1080 0
DWIDTH 12 0
BBX 9 31 0 -7
BITMAP
0000
0000
0000
0000
0000
0000
0000
0000
0000
0000
0000
0000
0000
0000
0000
0000
0000
0000
0000
1E00
3F00
6180
0180
1F80
7F80
C180
C380
C780
FD80
7980
0000
ENDCHAR
STARTCHAR char6
ENCODING 6
SWIDTH 1260 0
DWIDTH 14 0
BBX 11 31 0 -7
BITMAP
0000
0000
0000
0000
0000
03E0
0600
0C00
3800
3800
7000
7000
F000
FFE0
F000
F000
7000
7000
3800
0C00
0600
0600
03E0
0000
0000
0000
0000
0000
0000
0000
0000
ENDCHAR
STARTCHAR char7
ENCODING 7
SWIDTH 1710 0
DWIDTH 19 0
BBX 17 31 0 -7
BITMAP
000000
000000
000000
000000
000000
000000
000000
000000
FFF000
FFF000
FFFF00
381F80
381800
381800
381800
381800
381800
381800
381800
381800
381800
381800
381800
F81800
000F80
000000
000000
000000
000000
000000
000000
ENDCHAR
STARTCHAR char8
ENCODING 8
SWIDTH 1080 0
DWIDTH 12 0
BBX 9 31 0 -7
BITMAP
0000
0000
0000
0000
0000
0000
0000
0000
0000
0000
0000
0000
0000
0000
0000
0000
0000
0000
0000
0000
1F00
7F00
E180
C180
C000
C000
C000
E180
7F80
3F00
0000
ENDCHAR
STARTCHAR char11
ENCODING 11
SWIDTH 1530 0
DWIDTH 17 0
BBX 14 31 0 -7
BITMAP
0300
07C0
0FE0
0FE0
3B30
7318
C30C
0300
0300
0300
0300
0300
0300
0300
0300
0300
0300
0300
0300
0300
0300
0300
0300
0300
0000
0000
0000
0000
0000
0000
0000
ENDCHAR
STARTCHAR char14
ENCODING 14
SWIDTH 1080 0
DWIDTH 12 0
BBX 9 31 0 -7
BITMAP
0000
0000
0000
0000
0000
0000
0000
0000
0000
0000
0000
0000
0000
0000
0000
0000
0000
0000
0000
0000
C180
C180
C180
C180
C980
DD80
DD80
F780
E380
C180
0000
ENDCHAR
STARTCHAR char15
ENCODING 15
SWIDTH 1080 0
DWIDTH 12 0
BBX 10 31 0 -7
BITMAP
0000
0000
0000
0000
0000
0000
0000
0000
0000
0000
0000
0000
0000
0000
0000
0000
0000
0000
0000
C000
DB80
FFC0
CCC0
CCC0
CCC0
CCC0
CCC0
CCC0
CCC0
CCC0
0000
ENDCHAR
STARTCHAR char16
ENCODING 16
SWIDTH 1080 0
DWIDTH 12 0
BBX 9 31 0 -7
BITMAP
0000
0000
0000
0000
0000
0000
0000
0000
0000
0000
0000
0000
0000
0000
0000
0000
0000
0000
0000
0000
CE00
DF00
F180
E180
C000
C000
C000
C000
C000
C000
0000
ENDCHAR
STARTCHAR char17
ENCODING 17
SWIDTH 1800 0
DWIDTH 20 0
BBX 17 31 0 -7
BITMAP
000000
000000
000000
000000
000000
000000
000000
FFF800
FFFC00
FFFC00
000F00
000780
000380
000380
000380
000380
000780
000F00
FFFC00
FFF800
000000
000000
000000
000000
000000
000000
000000
000000
000000
000000
000000
ENDCHAR
STARTCHAR char18
ENCODING 18
SWIDTH 1080 0
DWIDTH 12 0
BBX 9 31 0 -7
BITMAP
0000
0000
0000
0000
0000
0000
0000
0000
0000
0000
0000
0000
0000
0000
0000
0000
0180
0180
0180
0180
3D80
7F80
E380
C180
C180
C180
C380
C780
7D80
3980
0000
ENDCHAR
STARTCHAR char19
ENCODING 19
SWIDTH 360 0
DWIDTH 4 0
BBX 2 31 0 -7
BITMAP
C0
C0
00
00
C0
C0
C0
C0
C0
C0
C0
C0
C0
C0
00
00
00
00
00
00
00
00
00
00
00
00
00
00
00
00
00
ENDCHAR
STARTCHAR char20
ENCODING 20
SWIDTH 1710 0
DWIDTH 19 0
BBX 17 31 0 -7
BITMAP
C00380
C00380
700700
700700
700700
700700
380C00
380C00
3FFC00
3FFC00
0FF800
0C1800
0C1800
063000
063000
063000
063000
03E000
03E000
03E000
01C000
01C000
01C000
01C000
000000
000000
000000
000000
000000
000000
000000
ENDCHAR
STARTCHAR char21
ENCODING 21
SWIDTH 720 0
DWIDTH 8 0
BBX 6 31 0 -7
BITMAP
00
00
00
00
00
00
00
FC
FC
00
00
00
00
00
00
00
00
00
00
00
00
00
00
00
00
00
00
00
00
00
00
ENDCHAR
STARTCHAR char23
ENCODING 23
SWIDTH 1350 0
DWIDTH 15 0
BBX 13 31 0 -7
BITMAP
0000
71E0
FBF0
DF38
CE18
0C18
0C18
0C18
0C18
0C18
0C18
0C18
0C18
0C18
0C18
0C18
0C18
0C18
0C18
0C18
0018
0018
0018
0018
0000
0000
0000
0000
0000
0000
0000
ENDCHAR
STARTCHAR char24
ENCODING 24
SWIDTH 1980 0
DWIDTH 22 0
BBX 19 31 0 -7
BITMAP
000000
000000
000000
000000
000000
000000
000000
020000
060000
060000
0C0000
380000
700000
FFFFE0
FFFFE0
FFFFE0
700000
380000
0C0000
060000
020000
020000
000000
000000
000000
000000
000000
000000
000000
000000
000000
ENDCHAR
STARTCHAR char25
ENCODING 25
SWIDTH 1980 0
DWIDTH 22 0
BBX 19 31 0 -7
BITMAP
000000
000000
000000
000000
000000
000000
000000
000800
000C00
000C00
000700
000380
0000C0
FFFFE0
FFFFE0
FFFFE0
0000C0
000380
000700
000C00
000800
000800
000000
000000
000000
000000
000000
000000
000000
000000
000000
ENDCHAR
STARTCHAR char26
ENCODING 26
SWIDTH 1710 0
DWIDTH 19 0
BBX 15 31 1 -7
BITMAP
0000
0000
000E
000E
000E
0018
0018
0030
0030
0030
0060
FFFE
FFFE
01C0
0380
0380
FFFE
FFFE
0C00
1800
1800
1800
7000
7000
E000
E000
0000
0000
0000
0000
0000
ENDCHAR
STARTCHAR char28
ENCODING 28
SWIDTH 1260 0
DWIDTH 14 0
BBX 12 31 0 -7
BITMAP
0F00
6660
E670
F6F0
3FC0
1F80
3FC0
F6F0
E670
6660
0F00
0F00
0000
0000
0000
0000
0000
0000
0000
0000
0000
0000
0000
0000
0000
0000
0000
0000
0000
0000
0000
ENDCHAR
STARTCHAR char29
ENCODING 29
SWIDTH 630 0
DWIDTH 7 0
BBX 4 31 1 -7
BITMAP
00
00
00
00
60
F0
F0
60
00
00
00
00
00
00
00
00
00
00
00
00
00
00
00
00
00
00
00
00
00
00
00
ENDCHAR
STARTCHAR char30
ENCODING 30
SWIDTH 810 0
DWIDTH 9 0
BBX 6 31 0 -7
BITMAP
00
00
00
00
00
00
00
00
00
00
00
00
00
00
00
00
FC
FC
30
30
30
30
30
30
30
30
30
30
FC
FC
00
ENDCHAR
STARTCHAR char31
ENCODING 31
SWIDTH 1800 0
DWIDTH 20 0
BBX 18 31 0 -7
BITMAP
000000
000000
000000
000000
000000
000000
000000
C000C0
C000C0
C000C0
700380
700380
380700
380700
0C0C00
0C0C00
0C0C00
061800
061800
033000
033000
033000
01E000
00C000
000000
000000
000000
000000
000000
000000
000000
ENDCHAR
STARTCHAR char32
ENCODING 32
SWIDTH 1080 0
DWIDTH 12 0
BBX 1 31 0 -7
BITMAP
00
00
00
00
00
00
00
00
00
00
00
00
00
00
00
00
00
00
00
00
00
00
00
00
00
00
00
00
00
00
00
ENDCHAR
STARTCHAR char33
ENCODING 33
SWIDTH 720 0
DWIDTH 8 0
BBX 5 31 1 -7
BITMAP
00
70
F8
F8
F8
F8
F8
F8
70
70
70
70
70
70
70
70
00
00
00
70
F8
F8
F8
70
00
00
00
00
00
00
00
ENDCHAR
STARTCHAR char34
ENCODING 34
SWIDTH 1170 0
DWIDTH 13 0
BBX 10 31 1 -7
BITMAP
F3C0
F3C0
F3C0
F3C0
F3C0
F3C0
F3C0
6180
0000
0000
0000
0000
0000
0000
0000
0000
0000
0000
0000
0000
0000
0000
0000
0000
0000
0000
0000
0000
0000
0000
0000
ENDCHAR
STARTCHAR char35
ENCODING 35
SWIDTH 1710 0
DWIDTH 19 0
BBX 16 31 1 -7
BITMAP
0000
0000
0000
0000
0000
0000
0000
0C30
0C30
0C30
0C30
FFFF
FFFF
0C30
0C30
0C30
0C30
FFFF
FFFF
0C30
0C30
0C30
0C30
0000
0000
0000
0000
0000
0000
0000
0000
ENDCHAR
STARTCHAR char36
ENCODING 36
SWIDTH 1620 0
DWIDTH 18 0
BBX 15 31 1 -7
BITMAP
0000
0C60
0FE0
3FFC
7C7E
6C7E
EC6E
EC60
EC60
EC60
EC60
7C60
7FE0
3FF8
0FFC
0C7C
0C6E
0C6E
0C6E
EC6E
EC6E
FC7C
7FFC
1FF8
0C60
0000
0000
0000
0000
0000
0000
ENDCHAR
STARTCHAR char37
ENCODING 37
SWIDTH 1620 0
DWIDTH 18 0
BBX 16 31 0 -7
BITMAP
0000
0000
001C
381C
7E1C
C638
C638
C670
7C70
3870
00E0
00E0
01C0
01C0
0380
0380
0380
071C
0E3E
1C63
1C63
1C63
383E
381C
0000
0000
0000
0000
0000
0000
0000
ENDCHAR
STARTCHAR char38
ENCODING 38
SWIDTH 2070 0
DWIDTH 23 0
BBX 20 31 0 -7
BITMAP
000000
01F000
073C00
073C00
061C00
0C0F00
0E0C00
0E1C00
073800
073800
07E000
07C3F0
3FC040
79E040
70F040
70F040
F0F0C0
F03880
F03880
F81F00
F80F00
F80F00
7C1F80
3FF3E0
070000
000000
000000
000000
000000
000000
000000
ENDCHAR
STARTCHAR char39
ENCODING 39
SWIDTH 720 0
DWIDTH 8 0
BBX 6 31 0 -7
BITMAP
00
F8
FC
FC
CC
04
0C
38
70
70
00
00
00
00
00
00
00
00
00
00
00
00
00
00
00
00
00
00
00
00
00
ENDCHAR
STARTCHAR char40
ENCODING 40
SWIDTH 990 0
DWIDTH 11 0
BBX 7 31 0 -7
BITMAP
02
06
0C
0C
0C
38
38
38
70
70
70
F0
E0
E0
E0
E0
F0
70
70
70
38
38
38
0C
0C
0C
06
02
00
00
00
ENDCHAR
STARTCHAR char41
ENCODING 41
SWIDTH 990 0
DWIDTH 11 0
BBX 7 31 0 -7
BITMAP
80
C0
60
60
60
38
38
38
1C
1C
1C
1E
0E
0E
0E
0E
1E
1C
1C
1C
38
38
38
60
60
60
C0
80
00
00
00
ENDCHAR
STARTCHAR char42
ENCODING 42
SWIDTH 1440 0
DWIDTH 16 0
BBX 13 31 0 -7
BITMAP
0000
0000
0000
0000
0000
0000
0200
0700
0700
0700
F238
FAF8
3FE0
0700
0700
0700
3FE0
FAF8
F238
0700
0700
0700
0200
0000
0000
0000
0000
0000
0000
0000
0000
ENDCHAR
STARTCHAR char43
ENCODING 43
SWIDTH 1620 0
DWIDTH 18 0
BBX 15 31 1 -7
BITMAP
0000
0000
0000
0000
0000
0000
0000
0380
0380
0380
0380
0380
0380
FFFE
FFFE
FFFE
0380
0380
0380
0380
0380
0380
0000
0000
0000
0000
0000
0000
0000
0000
0000
ENDCHAR
STARTCHAR char44
ENCODING 44
SWIDTH 630 0
DWIDTH 7 0
BBX 5 31 0 -7
BITMAP
00
00
00
00
00
00
00
00
00
00
00
00
00
00
00
00
00
00
00
70
F8
F8
F8
38
38
78
70
70
E0
80
00
ENDCHAR
STARTCHAR char45
ENCODING 45
SWIDTH 1440 0
DWIDTH 16 0
BBX 12 31 1 -7
BITMAP
0000
0000
0000
0000
0000
0000
0000
0000
0000
0000
0000
0000
0000
FFF0
FFF0
FFF0
0000
0000
0000
0000
0000
0000
0000
0000
0000
0000
0000
0000
0000
0000
0000
ENDCHAR
STARTCHAR char46
ENCODING 46
SWIDTH 630 0
DWIDTH 7 0
BBX 4 31 0 -7
BITMAP
00
00
00
00
00
00
00
00
00
00
00
00
00
00
00
00
00
00
00
00
60
F0
F0
60
00
00
00
00
00
00
00
ENDCHAR
STARTCHAR char47
ENCODING 47
SWIDTH 1440 0
DWIDTH 16 0
BBX 12 31 1 -7
BITMAP
0030
0070
0060
0060
0060
01E0
01C0
01C0
03C0
03C0
0380
0380
0780
0600
0600
0600
0E00
0C00
0C00
1C00
1800
1800
1800
7800
7000
7000
F000
F000
E000
E000
0000
ENDCHAR
STARTCHAR char48
ENCODING 48
SWIDTH 1710 0
DWIDTH 19 0
BBX 16 31 1 -7
BITMAP
0000
07E0
0FF0
1FF8
3C3C
781E
700E
F00F
E007
E007
E007
E007
E007
E007
E007
E007
E007
F00F
700E
781E
3C3C
1FF8
0FF0
07E0
0000
0000
0000
0000
0000
0000
0000
ENDCHAR
STARTCHAR char49
ENCODING 49
SWIDTH 1710 0
DWIDTH 19 0
BBX 9 31 4 -7
BITMAP
0000
1C00
3C00
FC00
FC00
1C00
1C00
1C00
1C00
1C00
1C00
1C00
1C00
1C00
1C00
1C00
1C00
1C00
1C00
1C00
1C00
1C00
FF80
FF80
0000
0000
0000
0000
0000
0000
0000
ENDCHAR
STARTCHAR char50
ENCODING 50
SWIDTH 1710 0
DWIDTH 19 0
BBX 15 31 2 -7
BITMAP
0000
07C0
1FF0
3FF8
7C7C
F01E
E00E
E00E
000E
001E
003E
007C
00F8
01F0
07E0
0FC0
1F80
3E00
7C00
7800
F000
FFFE
FFFE
FFFE
0000
0000
0000
0000
0000
0000
0000
ENDCHAR
STARTCHAR char51
ENCODING 51
SWIDTH 1710 0
DWIDTH 19 0
BBX 16 31 1 -7
BITMAP
0000
0FF0
3FF8
7FFC
783E
F00F
E007
E007
0007
000F
001E
07FC
07F8
07FC
001E
000F
0007
E007
E007
F00F
783E
7FFC
3FF8
0FF0
0000
0000
0000
0000
0000
0000
0000
ENDCHAR
STARTCHAR char52
ENCODING 52
SWIDTH 1710 0
DWIDTH 19 0
BBX 17 31 1 -7
BITMAP
000000
00FC00
01FC00
01FC00
039C00
039C00
071C00
071C00
0E1C00
0E1C00
1C1C00
1C1C00
381C00
381C00
701C00
FFFF80
FFFF80
FFFF80
001C00
001C00
001C00
001C00
001C00
001C00
000000
000000
000000
000000
000000
000000
000000
ENDCHAR
STARTCHAR char53
ENCODING 53
SWIDTH 1710 0
DWIDTH 19 0
BBX 15 31 2 -7
BITMAP
0000
FFFC
FFFC
FFFC
E000
E000
E000
E000
E000
EFF0
FFF8
FFFC
F83C
F01E
000E
000E
000E
000E
000E
F01E
F83E
FFFC
3FF8
0FF0
0000
0000
0000
0000
0000
0000
0000
ENDCHAR
STARTCHAR char54
ENCODING 54
SWIDTH 1710 0
DWIDTH 19 0
BBX 14 31 2 -7
BITMAP
0000
0FC0
1FF0
3FF8
7C3C
781C
F000
F000
E000
E000
EFC0
FFF0
FFF0
F878
F03C
E01C
E01C
E01C
E01C
F03C
787C
7FF8
3FF0
0FC0
0000
0000
0000
0000
0000
0000
0000
ENDCHAR
STARTCHAR char55
ENCODING 55
SWIDTH 1710 0
DWIDTH 19 0
BBX 14 31 3 -7
BITMAP
0000
FFFC
FFFC
FFFC
003C
0038
0078
0070
00F0
00E0
01E0
01C0
03C0
0380
0780
0700
0F00
0E00
1E00
1C00
3C00
3800
7800
7000
0000
0000
0000
0000
0000
0000
0000
ENDCHAR
STARTCHAR char56
ENCODING 56
SWIDTH 1710 0
DWIDTH 19 0
BBX 16 31 1 -7
BITMAP
0000
0FF0
3FFC
3FFC
781E
700E
700E
700E
781E
3C3C
3E7C
0FF0
07E0
1FF8
7E7E
781E
F00F
E007
E007
F00F
F81F
7FFE
7FFE
1FF8
0000
0000
0000
0000
0000
0000
0000
ENDCHAR
STARTCHAR char57
ENCODING 57
SWIDTH 1710 0
DWIDTH 19 0
BBX 14 31 3 -7
BITMAP
0000
0FC0
3FF0
7FF8
F878
F03C
E01C
E01C
E01C
E01C
F03C
F87C
7FFC
3FFC
0FDC
001C
001C
003C
003C
E078
F0F8
7FF0
3FE0
1FC0
0000
0000
0000
0000
0000
0000
0000
ENDCHAR
STARTCHAR char58
ENCODING 58
SWIDTH 720 0
DWIDTH 8 0
BBX 5 31 1 -7
BITMAP
00
00
00
00
00
00
00
00
00
00
70
F8
F8
70
00
00
00
00
00
70
F8
F8
F8
70
00
00
00
00
00
00
00
ENDCHAR
STARTCHAR char59
ENCODING 59
SWIDTH 630 0
DWIDTH 7 0
BBX 5 31 0 -7
BITMAP
00
00
00
00
00
00
00
00
00
00
70
F8
F8
70
00
00
00
00
70
F8
F8
F8
38
38
78
70
C0
C0
80
00
00
ENDCHAR
STARTCHAR char60
ENCODING 60
SWIDTH 1530 0
DWIDTH 17 0
BBX 14 31 0 -7
BITMAP
0000
0000
0000
0000
0000
000C
003C
01F0
07C0
07C0
3E00
F800
F800
3E00
07C0
07C0
01F0
003C
000C
0000
0000
0000
0000
0000
0000
0000
0000
0000
0000
0000
0000
ENDCHAR
STARTCHAR char61
ENCODING 61
SWIDTH 1710 0
DWIDTH 19 0
BBX 16 31 1 -7
BITMAP
0000
0000
0000
0000
0000
0000
0000
0000
0000
0000
0000
FFFF
FFFF
0000
0000
0000
FFFF
FFFF
0000
0000
0000
0000
0000
0000
0000
0000
0000
0000
0000
0000
0000
ENDCHAR
STARTCHAR char62
ENCODING 62
SWIDTH 1530 0
DWIDTH 17 0
BBX 14 31 0 -7
BITMAP
0000
0000
0000
0000
0000
C000
F800
3E00
07C0
07C0
01F0
003C
003C
01F0
07C0
07C0
3E00
F800
C000
0000
0000
0000
0000
0000
0000
0000
0000
0000
0000
0000
0000
ENDCHAR
STARTCHAR char63
ENCODING 63
SWIDTH 1170 0
DWIDTH 13 0
BBX 11 31 0 -7
BITMAP
0000
3F00
73C0
73C0
C0C0
F0E0
F1E0
41E0
03E0
03E0
07C0
0F00
0E00
0C00
0800
0800
0800
0800
0000
0000
0C00
0C00
3E00
0C00
0000
0000
0000
0000
0000
0000
0000
ENDCHAR
STARTCHAR char64
ENCODING 64
SWIDTH 2160 0
DWIDTH 24 0
BBX 21 31 1 -7
BITMAP
000000
000000
000000
000000
000000
000000
07FF80
0FFFC0
1C00E0
3800E0
700070
E3F038
E7F838
CF1E38
CE0E38
CE0E38
CE0E38
CE0E38
CE0E70
CF1FE0
C7FFC0
C1FC00
E00000
7FFFF8
1FFFF8
000000
000000
000000
000000
000000
000000
ENDCHAR
STARTCHAR char65
ENCODING 65
SWIDTH 1890 0
DWIDTH 21 0
BBX 19 31 0 -7
BITMAP
000000
00E000
00E000
01F000
01F000
01F000
03B800
03B800
03B800
071C00
071C00
071C00
0E0E00
0E0E00
0E0E00
1FFF00
1FFF00
1FFF00
380380
380380
380380
7001C0
7001C0
F001E0
000000
000000
000000
000000
000000
000000
000000
ENDCHAR
STARTCHAR char66
ENCODING 66
SWIDTH 1800 0
DWIDTH 20 0
BBX 17 31 1 -7
BITMAP
000000
FFF800
FFFE00
FFFF00
E01F80
E00780
E00380
E00380
E00380
E00780
E01F00
FFFE00
FFF800
FFFE00
E01F00
E00780
E00380
E00380
E00380
E00780
E01F80
FFFF00
FFFE00
FFF800
000000
000000
000000
000000
000000
000000
000000
ENDCHAR
STARTCHAR char67
ENCODING 67
SWIDTH 1800 0
DWIDTH 20 0
BBX 18 31 0 -7
BITMAP
000000
03F800
0FFE00
1FFF00
3E0F80
7C07C0
7803C0
F001C0
F00000
E00000
E00000
E00000
E00000
E00000
E00000
E00000
F00000
F001C0
7803C0
7C07C0
3E0F80
1FFF00
0FFE00
03F800
000000
000000
000000
000000
000000
000000
000000
ENDCHAR
STARTCHAR char68
ENCODING 68
SWIDTH 1800 0
DWIDTH 20 0
BBX 17 31 1 -7
BITMAP
000000
FFF000
FFFC00
FFFE00
E03F00
E00F00
E00780
E00780
E00380
E00380
E00380
E00380
E00380
E00380
E00380
E00380
E00380
E00780
E00780
E00F80
E03F00
FFFF00
FFFC00
FFF000
000000
000000
000000
000000
000000
000000
000000
ENDCHAR
STARTCHAR char69
ENCODING 69
SWIDTH 1620 0
DWIDTH 18 0
BBX 15 31 1 -7
BITMAP
0000
FFFE
FFFE
FFFE
E000
E000
E000
E000
E000
E000
E000
FFE0
FFE0
FFE0
E000
E000
E000
E000
E000
E000
E000
FFFE
FFFE
FFFE
0000
0000
0000
0000
0000
0000
0000
ENDCHAR
STARTCHAR char70
ENCODING 70
SWIDTH 1620 0
DWIDTH 18 0
BBX 15 31 1 -7
BITMAP
0000
FFFE
FFFE
FFFE
E000
E000
E000
E000
E000
E000
E000
FFE0
FFE0
FFE0
E000
E000
E000
E000
E000
E000
E000
E000
E000
E000
0000
0000
0000
0000
0000
0000
0000
ENDCHAR
STARTCHAR char71
ENCODING 71
SWIDTH 1890 0
DWIDTH 21 0
BBX 18 31 1 -7
BITMAP
000000
0FFC00
1FFF00
3FFF00
7C0F80
7803C0
F001C0
F001C0
E00000
E00000
E00000
E00000
E00000
E03FC0
E03FC0
E03FC0
E001C0
F001C0
F003C0
7807C0
7C0FC0
3FFFC0
1FFEC0
0FFCC0
000000
000000
000000
000000
000000
000000
000000
ENDCHAR
STARTCHAR char72
ENCODING 72
SWIDTH 1710 0
DWIDTH 19 0
BBX 16 31 1 -7
BITMAP
0000
E007
E007
E007
E007
E007
E007
E007
E007
E007
E007
FFFF
FFFF
FFFF
E007
E007
E007
E007
E007
E007
E007
E007
E007
E007
0000
0000
0000
0000
0000
0000
0000
ENDCHAR
STARTCHAR char73
ENCODING 73
SWIDTH 630 0
DWIDTH 7 0
BBX 3 31 1 -7
BITMAP
00
E0
E0
E0
E0
E0
E0
E0
E0
E0
E0
E0
E0
E0
E0
E0
E0
E0
E0
E0
E0
E0
E0
E0
00
00
00
00
00
00
00
ENDCHAR
STARTCHAR char74
ENCODING 74
SWIDTH 1530 0
DWIDTH 17 0
BBX 13 31 0 -7
BITMAP
0000
0038
0038
0038
0038
0038
0038
0038
0038
0038
0038
0038
0038
0038
0038
0038
0038
0038
E038
E078
F078
7FF8
7FF0
1FC0
0000
0000
0000
0000
0000
0000
0000
ENDCHAR
STARTCHAR char75
ENCODING 75
SWIDTH 1710 0
DWIDTH 19 0
BBX 15 31 1 -7
BITMAP
0000
E00E
E01E
E03E
E07C
E0F8
E1F0
E3E0
E7C0
EF80
FF00
FE00
FC00
FE00
EF00
E780
E3C0
E1E0
E0F0
E078
E03C
E01E
E01E
E00E
0000
0000
0000
0000
0000
0000
0000
ENDCHAR
STARTCHAR char76
ENCODING 76
SWIDTH 1440 0
DWIDTH 16 0
BBX 13 31 1 -7
BITMAP
0000
E000
E000
E000
E000
E000
E000
E000
E000
E000
E000
E000
E000
E000
E000
E000
E000
E000
E000
E000
E000
FFF8
FFF8
FFF8
0000
0000
0000
0000
0000
0000
0000
ENDCHAR
STARTCHAR char77
ENCODING 77
SWIDTH 2250 0
DWIDTH 25 0
BBX 21 31 1 -7
BITMAP
000000
E00038
F00078
F00078
F800F8
F800F8
F800F8
FC01F8
FC01F8
FE03F8
FE03F8
EF07B8
EF07B8
EF07B8
E78F38
E78F38
E38E38
E3DE38
E1DC38
E1FC38
E1FC38
E0F838
E0F838
E07038
000000
000000
000000
000000
000000
000000
000000
ENDCHAR
STARTCHAR char78
ENCODING 78
SWIDTH 1800 0
DWIDTH 20 0
BBX 17 31 1 -7
BITMAP
000000
F80380
F80380
FC0380
FC0380
FE0380
FE0380
EF0380
EF0380
E78380
E78380
E3C380
E3C380
E1E380
E1E380
E0F380
E0F380
E07B80
E07B80
E03F80
E03F80
E01F80
E01F80
E00F80
000000
000000
000000
000000
000000
000000
000000
ENDCHAR
STARTCHAR char79
ENCODING 79
SWIDTH 1800 0
DWIDTH 20 0
BBX 18 31 0 -7
BITMAP
000000
03F000
0FFC00
1FFE00
3C0F00
380700
700380
700380
E001C0
E001C0
E001C0
E001C0
E001C0
E001C0
E001C0
E001C0
E001C0
E001C0
F003C0
700380
780780
3C0F00
3FFF00
1FFE00
03F000
000000
000000
000000
000000
000000
000000
ENDCHAR
STARTCHAR char80
ENCODING 80
SWIDTH 1710 0
DWIDTH 19 0
BBX 16 31 1 -7
BITMAP
0000
FFF8
FFFC
FFFE
E01F
E00F
E007
E007
E007
E00F
E01F
FFFE
FFFC
FFF0
E000
E000
E000
E000
E000
E000
E000
E000
E000
E000
0000
0000
0000
0000
0000
0000
0000
ENDCHAR
STARTCHAR char81
ENCODING 81
SWIDTH 1800 0
DWIDTH 20 0
BBX 18 31 0 -7
BITMAP
000000
03F000
0FFC00
1FFE00
3C0F00
380700
700380
700380
E001C0
E001C0
E001C0
E001C0
E001C0
E001C0
E001C0
E001C0
E001C0
E001C0
F003C0
700380
780780
3C0F00
3FFF00
1FFE00
03F000
007800
003F00
001F80
000F80
000000
000000
ENDCHAR
STARTCHAR char82
ENCODING 82
SWIDTH 1710 0
DWIDTH 19 0
BBX 16 31 1 -7
BITMAP
0000
FFF8
FFFC
FFFE
E01F
E00F
E007
E007
E007
E00F
E01F
FFFE
FFFC
FFF0
E1E0
E0F0
E0F0
E078
E03C
E03E
E01E
E00F
E00F
E007
0000
0000
0000
0000
0000
0000
0000
ENDCHAR
STARTCHAR char83
ENCODING 83
SWIDTH 1620 0
DWIDTH 18 0
BBX 15 31 1 -7
BITMAP
0000
07C0
1FF0
3FFC
7C7E
701E
E00E
E000
E000
E000
F000
7C00
7FC0
3FF8
0FFC
00FC
001E
000E
000E
E00E
F01E
FC7C
7FFC
1FF8
07C0
0000
0000
0000
0000
0000
0000
ENDCHAR
STARTCHAR char84
ENCODING 84
SWIDTH 1710 0
DWIDTH 19 0
BBX 17 31 0 -7
BITMAP
000000
FFFF80
FFFF80
FFFF80
01C000
01C000
01C000
01C000
01C000
01C000
01C000
01C000
01C000
01C000
01C000
01C000
01C000
01C000
01C000
01C000
01C000
01C000
01C000
01C000
000000
000000
000000
000000
000000
000000
000000
ENDCHAR
STARTCHAR char85
ENCODING 85
SWIDTH 1800 0
DWIDTH 20 0
BBX 17 31 1 -7
BITMAP
000000
E00380
E00380
E00380
E00380
E00380
E00380
E00380
E00380
E00380
E00380
E00380
E00380
E00380
E00380
E00380
E00380
E00380
E00380
F00780
780F00
7FFF00
3FFE00
0FF800
000000
000000
000000
000000
000000
000000
000000
ENDCHAR
STARTCHAR char86
ENCODING 86
SWIDTH 1800 0
DWIDTH 20 0
BBX 18 31 0 -7
BITMAP
000000
E001C0
E001C0
F003C0
F003C0
700380
780780
380700
380700
380700
3C0F00
1C0E00
1C0E00
1E1E00
1E1E00
0E1C00
0E1C00
0F3C00
073800
073800
07F800
07F800
01E000
01E000
000000
000000
000000
000000
000000
000000
000000
ENDCHAR
STARTCHAR char87
ENCODING 87
SWIDTH 2790 0
DWIDTH 31 0
BBX 29 31 0 -7
BITMAP
00000000
E0000038
E0000038
E0000038
F0070078
70070070
70070070
780F80F0
380F80E0
380F80E0
3C1FC1E0
1C1DC1C0
1C1DC1C0
1E3DE3C0
0E38E380
0E38E380
0F78F780
07707700
07F07F00
07F07F00
03E03E00
03E03E00
01C01C00
01C01C00
00000000
00000000
00000000
00000000
00000000
00000000
00000000
ENDCHAR
STARTCHAR char88
ENCODING 88
SWIDTH 1710 0
DWIDTH 19 0
BBX 17 31 0 -7
BITMAP
000000
E00380
E00380
F00780
780F00
780F00
3C1E00
1E3C00
1E3C00
0F7800
07F000
03E000
01C000
03E000
07F000
0F7800
1E3C00
1E3C00
3C1E00
780F00
780F00
F00780
E00380
E00380
000000
000000
000000
000000
000000
000000
000000
ENDCHAR
STARTCHAR char89
ENCODING 89
SWIDTH 1710 0
DWIDTH 19 0
BBX 17 31 0 -7
BITMAP
000000
E00380
E00380
F00780
780F00
780F00
3C1E00
1E3C00
1E3C00
0F7800
07F000
03E000
03E000
01C000
01C000
01C000
01C000
01C000
01C000
01C000
01C000
01C000
01C000
01C000
000000
000000
000000
000000
000000
000000
000000
ENDCHAR
STARTCHAR char90
ENCODING 90
SWIDTH 1620 0
DWIDTH 18 0
BBX 16 31 0 -7
BITMAP
0000
FFFF
FFFF
FFFF
000F
001E
001E
003C
007C
00F8
00F0
01E0
03E0
07C0
0780
0F00
1F00
3E00
3C00
7800
F800
FFFF
FFFF
FFFF
0000
0000
0000
0000
0000
0000
0000
ENDCHAR
STARTCHAR char91
ENCODING 91
SWIDTH 1080 0
DWIDTH 12 0
BBX 9 31 1 -7
BITMAP
FF80
FF80
E000
E000
E000
E000
E000
E000
E000
E000
E000
E000
E000
E000
E000
E000
E000
E000
E000
E000
E000
E000
E000
E000
E000
E000
E000
E000
FF80
FF80
0000
ENDCHAR
STARTCHAR char92
ENCODING 92
SWIDTH 1440 0
DWIDTH 16 0
BBX 12 31 1 -7
BITMAP
E000
F000
7000
7000
7000
7800
1800
1800
1C00
1C00
0C00
0C00
0E00
0600
0600
0600
0780
0380
0380
03C0
01C0
01C0
01C0
01E0
0060
0060
0070
0070
0030
0030
0000
ENDCHAR
STARTCHAR char93
ENCODING 93
SWIDTH 1080 0
DWIDTH 12 0
BBX 9 31 1 -7
BITMAP
FF80
FF80
0380
0380
0380
0380
0380
0380
0380
0380
0380
0380
0380
0380
0380
0380
0380
0380
0380
0380
0380
0380
0380
0380
0380
0380
0380
0380
FF80
FF80
0000
ENDCHAR
STARTCHAR char94
ENCODING 94
SWIDTH 1710 0
DWIDTH 19 0
BBX 17 31 0 -7
BITMAP
008000
01C000
03E000
07F000
0E3800
1C1C00
380E00
700700
E00380
000000
000000
000000
000000
000000
000000
000000
000000
000000
000000
000000
000000
000000
000000
000000
000000
000000
000000
000000
000000
000000
000000
ENDCHAR
STARTCHAR char95
ENCODING 95
SWIDTH 1710 0
DWIDTH 19 0
BBX 19 31 0 -7
BITMAP
000000
000000
000000
000000
000000
000000
000000
000000
000000
000000
000000
000000
000000
000000
000000
000000
000000
000000
000000
000000
000000
000000
000000
000000
000000
FFFFE0
FFFFE0
FFFFE0
000000
000000
000000
ENDCHAR
STARTCHAR char96
ENCODING 96
SWIDTH 720 0
DWIDTH 8 0
BBX 6 31 0 -7
BITMAP
00
78
FC
FC
F8
80
C0
70
38
38
0C
00
00
00
00
00
00
00
00
00
00
00
00
00
00
00
00
00
00
00
00
ENDCHAR
STARTCHAR char97
ENCODING 97
SWIDTH 1440 0
DWIDTH 16 0
BBX 13 31 1 -7
BITMAP
0000
0000
0000
0000
0000
0000
0000
0000
0F80
3FE0
7FF0
F070
E038
0038
0FB8
3FF8
7FF8
F078
E038
E038
E078
F9F8
7FB8
3F38
0000
0000
0000
0000
0000
0000
0000
ENDCHAR
STARTCHAR char98
ENCODING 98
SWIDTH 1620 0
DWIDTH 18 0
BBX 15 31 1 -7
BITMAP
0000
E000
E000
E000
E000
E000
E000
E000
E7E0
EFF0
FFF8
FC3C
F81C
F01E
E00E
E00E
E00E
E00E
F01E
F81C
FC3C
FFF8
EFF0
E7E0
0000
0000
0000
0000
0000
0000
0000
ENDCHAR
STARTCHAR char99
ENCODING 99
SWIDTH 1350 0
DWIDTH 15 0
BBX 13 31 0 -7
BITMAP
0000
0000
0000
0000
0000
0000
0000
0000
0FC0
3FF0
3FF0
7878
7038
F000
E000
E000
E000
E000
F000
7038
7878
3FF0
3FF0
0FC0
0000
0000
0000
0000
0000
0000
0000
ENDCHAR
STARTCHAR char100
ENCODING 100
SWIDTH 1530 0
DWIDTH 17 0
BBX 15 31 0 -7
BITMAP
0000
000E
000E
000E
000E
000E
000E
000E
0FCE
1FEE
3FFE
787E
703E
F01E
E00E
E00E
E00E
E00E
F01E
F03E
787E
7FFE
3FFE
0FCE
0000
0000
0000
0000
0000
0000
0000
ENDCHAR
STARTCHAR char101
ENCODING 101
SWIDTH 1620 0
DWIDTH 18 0
BBX 15 31 1 -7
BITMAP
0000
0000
0000
0000
0000
0000
0000
0000
07C0
1FF0
3FF8
783C
701C
E00E
FFFE
FFFE
FFFE
E000
E000
F00E
781E
7FFC
3FF8
0FE0
0000
0000
0000
0000
0000
0000
0000
ENDCHAR
STARTCHAR char102
ENCODING 102
SWIDTH 990 0
DWIDTH 11 0
BBX 8 31 1 -7
BITMAP
00
07
0F
1F
1C
38
38
38
FF
FF
FF
38
38
38
38
38
38
38
38
38
38
38
38
38
00
00
00
00
00
00
00
ENDCHAR
STARTCHAR char103
ENCODING 103
SWIDTH 1440 0
DWIDTH 16 0
BBX 14 31 1 -7
BITMAP
0000
0000
0000
0000
0000
0000
0000
0000
1F9C
3FDC
7FF8
70E0
E070
E070
E070
F0F0
7FE0
7FE0
3F80
F000
E000
6FC0
3FF0
7FF8
F078
E038
F078
FFF8
7FF0
1FC0
0000
ENDCHAR
STARTCHAR char104
ENCODING 104
SWIDTH 1440 0
DWIDTH 16 0
BBX 13 31 1 -7
BITMAP
0000
E000
E000
E000
E000
E000
E000
E000
E7C0
EFE0
FFE0
F8F0
F070
F078
E038
E038
E038
E038
E038
E038
E038
E038
E038
E038
0000
0000
0000
0000
0000
0000
0000
ENDCHAR
STARTCHAR char105
ENCODING 105
SWIDTH 720 0
DWIDTH 8 0
BBX 3 31 1 -7
BITMAP
00
E0
E0
E0
E0
00
00
00
E0
E0
E0
E0
E0
E0
E0
E0
E0
E0
E0
E0
E0
E0
E0
E0
00
00
00
00
00
00
00
ENDCHAR
STARTCHAR char106
ENCODING 106
SWIDTH 990 0
DWIDTH 11 0
BBX 7 31 0 -7
BITMAP
00
0E
0E
0E
0E
00
00
00
0E
0E
0E
0E
0E
0E
0E
0E
0E
0E
0E
0E
0E
0E
0E
0E
0E
1E
3E
FC
F8
F0
00
ENDCHAR
STARTCHAR char107
ENCODING 107
SWIDTH 1440 0
DWIDTH 16 0
BBX 13 31 1 -7
BITMAP
0000
E000
E000
E000
E000
E000
E000
E000
E060
E0E0
E1E0
E3C0
E780
EF00
FE00
FE00
FF00
F780
E3C0
E1E0
E0F0
E078
E038
E018
0000
0000
0000
0000
0000
0000
0000
ENDCHAR
STARTCHAR char108
ENCODING 108
SWIDTH 720 0
DWIDTH 8 0
BBX 3 31 1 -7
BITMAP
00
E0
E0
E0
E0
E0
E0
E0
E0
E0
E0
E0
E0
E0
E0
E0
E0
E0
E0
E0
E0
E0
E0
E0
00
00
00
00
00
00
00
ENDCHAR
STARTCHAR char109
ENCODING 109
SWIDTH 2070 0
DWIDTH 23 0
BBX 20 31 1 -7
BITMAP
000000
000000
000000
000000
000000
000000
000000
000000
E78780
EFCFC0
FFDFE0
FCFCF0
F87870
F07070
E07070
E07070
E07070
E07070
E07070
E07070
E07070
E07070
E07070
E07070
000000
000000
000000
000000
000000
000000
000000
ENDCHAR
STARTCHAR char110
ENCODING 110
SWIDTH 1440 0
DWIDTH 16 0
BBX 13 31 1 -7
BITMAP
0000
0000
0000
0000
0000
0000
0000
0000
E7C0
EFE0
FFF0
FCF0
F878
F038
E038
E038
E038
E038
E038
E038
E038
E038
E038
E038
0000
0000
0000
0000
0000
0000
0000
ENDCHAR
STARTCHAR char111
ENCODING 111
SWIDTH 1530 0
DWIDTH 17 0
BBX 14 31 1 -7
BITMAP
0000
0000
0000
0000
0000
0000
0000
0000
0FC0
3FF0
3FF0
7CF8
7038
F03C
E01C
E01C
E01C
E01C
F03C
F038
7CF8
7FF8
3FF0
0FC0
0000
0000
0000
0000
0000
0000
0000
ENDCHAR
STARTCHAR char112
ENCODING 112
SWIDTH 1620 0
DWIDTH 18 0
BBX 15 31 1 -7
BITMAP
0000
0000
0000
0000
0000
0000
0000
0000
E7E0
EFF0
FFF8
FC7C
F01C
F01E
E00E
E00E
E00E
E00E
F01E
F01C
FC7C
FFF8
EFF0
E7E0
E000
E000
E000
E000
E000
E000
0000
ENDCHAR
STARTCHAR char113
ENCODING 113
SWIDTH 1620 0
DWIDTH 18 0
BBX 15 31 1 -7
BITMAP
0000
0000
0000
0000
0000
0000
0000
0000
0FCE
1FEE
3FFE
7C7E
701E
F01E
E00E
E00E
E00E
E00E
F01E
701E
7C7E
3FFE
1FEE
0FCE
000E
000E
000E
000E
000E
000E
0000
ENDCHAR
STARTCHAR char114
ENCODING 114
SWIDTH 1170 0
DWIDTH 13 0
BBX 10 31 1 -7
BITMAP
0000
0000
0000
0000
0000
0000
0000
0000
E1C0
E3C0
EFC0
FF00
FC00
F800
F000
E000
E000
E000
E000
E000
E000
E000
E000
E000
0000
0000
0000
0000
0000
0000
0000
ENDCHAR
STARTCHAR char115
ENCODING 115
SWIDTH 1350 0
DWIDTH 15 0
BBX 12 31 1 -7
BITMAP
0000
0000
0000
0000
0000
0000
0000
0000
0F00
3FC0
7FE0
F0F0
E070
E000
F800
7FC0
3FE0
01F0
0070
E070
F0F0
7FE0
3FC0
0F00
0000
0000
0000
0000
0000
0000
0000
ENDCHAR
STARTCHAR char116
ENCODING 116
SWIDTH 1080 0
DWIDTH 12 0
BBX 10 31 0 -7
BITMAP
0000
1C00
1C00
1C00
1C00
1C00
1C00
7F80
7F80
7F80
1C00
1C00
1C00
1C00
1C00
1C00
1C00
1C00
1C00
1C00
1E00
1FC0
0FC0
07C0
8000
0000
0000
0000
0000
0000
0000
ENDCHAR
STARTCHAR char117
ENCODING 117
SWIDTH 1530 0
DWIDTH 17 0
BBX 14 31 1 -7
BITMAP
0000
0000
0000
0000
0000
0000
0000
0000
E01C
E01C
E01C
E01C
E01C
E01C
E01C
E01C
E01C
E01C
E01C
E01C
F03C
FFFC
7FFC
1FDC
0000
0000
0000
0000
0000
0000
0000
ENDCHAR
STARTCHAR char118
ENCODING 118
SWIDTH 1620 0
DWIDTH 18 0
BBX 15 31 1 -7
BITMAP
0000
0000
0000
0000
0000
0000
0000
0000
E00E
E00E
701C
701C
3838
3838
1C70
1C70
0EE0
0EE0
07C0
07C0
0380
0380
0100
0100
0000
0000
0000
0000
0000
0000
0000
ENDCHAR
STARTCHAR char119
ENCODING 119
SWIDTH 2250 0
DWIDTH 25 0
BBX 23 31 0 -7
BITMAP
000000
000000
000000
000000
000000
000000
000000
000000
E0380E
E0380E
E07C0E
707C1C
707C1C
70FE1C
38EE38
38EE38
38EE38
1DC770
1DC770
1D8770
0F83E0
0F83E0
0F83E0
0701C0
000000
000000
000000
000000
000000
000000
000000
ENDCHAR
STARTCHAR char120
ENCODING 120
SWIDTH 1620 0
DWIDTH 18 0
BBX 16 31 0 -7
BITMAP
0000
0000
0000
0000
0000
0000
0000
0000
E007
F00F
781E
3C3C
1E78
0FF0
07E0
03C0
07E0
0FF0
1E78
3C3C
781E
F00F
E007
C003
0000
0000
0000
0000
0000
0000
0000
ENDCHAR
STARTCHAR char121
ENCODING 121
SWIDTH 1530 0
DWIDTH 17 0
BBX 15 31 0 -7
BITMAP
0000
0000
0000
0000
0000
0000
0000
0000
E00E
E00E
F01E
701C
783C
3838
3C78
1C70
1EF0
0EE0
0FE0
07C0
07C0
03C0
0380
0380
0780
0700
0F00
FE00
FE00
F800
0000
ENDCHAR
STARTCHAR char122
ENCODING 122
SWIDTH 1350 0
DWIDTH 15 0
BBX 13 31 0 -7
BITMAP
0000
0000
0000
0000
0000
0000
0000
0000
FFF8
FFF8
FFF8
0078
00F0
01E0
03C0
0780
0F00
1E00
3C00
7800
F000
FFF8
FFF8
FFF8
0000
0000
0000
0000
0000
0000
0000
ENDCHAR
STARTCHAR char123
ENCODING 123
SWIDTH 1170 0
DWIDTH 13 0
BBX 10 31 1 -7
BITMAP
07C0
0E00
1800
1800
1800
1800
1C00
0C00
0C00
0C00
0C00
0800
1000
7000
F000
F000
7000
1000
0800
0C00
0C00
0C00
0C00
1C00
1800
1800
1800
1800
0E00
07C0
0000
ENDCHAR
STARTCHAR char124
ENCODING 124
SWIDTH 720 0
DWIDTH 8 0
BBX 3 31 2 -7
BITMAP
E0
E0
E0
E0
E0
E0
E0
E0
E0
E0
E0
E0
E0
E0
E0
E0
E0
E0
E0
E0
E0
E0
E0
E0
E0
E0
E0
E0
E0
E0
00
ENDCHAR
STARTCHAR char125
ENCODING 125
SWIDTH 1170 0
DWIDTH 13 0
BBX 10 31 1 -7
BITMAP
F800
1C00
0600
0600
0600
0600
0E00
0C00
0C00
0C00
0C00
0400
0200
0380
03C0
03C0
0380
0200
0400
0C00
0C00
0C00
0C00
0E00
0600
0600
0600
0600
1C00
F800
0000
ENDCHAR
STARTCHAR char126
ENCODING 126
SWIDTH 1710 0
DWIDTH 19 0
BBX 17 31 0 -7
BITMAP
000000
000000
000000
000000
000000
000000
000000
000000
000000
000000
0E0080
3F0080
7FC380
73E700
C1FF00
C1FF00
80FC00
803800
000000
000000
000000
000000
000000
000000
000000
000000
000000
000000
000000
000000
000000
ENDCHAR
STARTCHAR char127
ENCODING 127
SWIDTH 1890 0
DWIDTH 21 0
BBX 19 31 0 -7
BITMAP
000000
0001C0
0003E0
0006E0
0006E0
000C00
000C00
001800
001800
003000
003000
006000
006000
00C000
00C000
018000
018000
030000
030000
060000
060000
EC0000
EC0000
F80000
700000
000000
000000
000000
000000
000000
000000
ENDCHAR
ENDFONT
